<?xml version="1.0" encoding="UTF-8" standalone="no"?>
<svg
   version="1.0"
   width="225.4337pt"
   height="145.03297pt"
   viewBox="0 0 225.43369 145.03298"
   preserveAspectRatio="xMidYMid"
   id="svg104"
   sodipodi:docname="Başlık.svg"
   inkscape:version="1.2.2 (732a01da63, 2022-12-09)"
   xmlns:inkscape="http://www.inkscape.org/namespaces/inkscape"
   xmlns:sodipodi="http://sodipodi.sourceforge.net/DTD/sodipodi-0.dtd"
   xmlns="http://www.w3.org/2000/svg"
   xmlns:svg="http://www.w3.org/2000/svg">
  <defs
     id="defs108" />
  <sodipodi:namedview
     id="namedview106"
     pagecolor="#ffffff"
     bordercolor="#000000"
     borderopacity="0.25"
     inkscape:showpageshadow="2"
     inkscape:pageopacity="0.0"
     inkscape:pagecheckerboard="0"
     inkscape:deskcolor="#d1d1d1"
     inkscape:document-units="pt"
     showgrid="false"
     inkscape:zoom="1.4250685"
     inkscape:cx="97.539168"
     inkscape:cy="84.206476"
     inkscape:window-width="1920"
     inkscape:window-height="1009"
     inkscape:window-x="-8"
     inkscape:window-y="-8"
     inkscape:window-maximized="1"
     inkscape:current-layer="svg104" />
  <g
     transform="matrix(0.1,0,0,-0.1,-137.10455,320.71626)"
     fill="#000000"
     stroke="none"
     id="g102">
    <path
       d="m 2164,3114 c 5,-10 11,-38 13,-61 6,-49 23,-58 23,-14 0,16 5,42 10,57 6,15 8,29 5,32 -3,4 -8,-4 -12,-16 -6,-25 -23,-30 -23,-8 0,8 -5,18 -12,22 -8,5 -9,2 -4,-12 z"
       id="path56" />
    <path
       d="m 2266,3100 c -11,-57 -16,-95 -10,-82 3,6 14,12 24,12 10,0 21,-6 24,-12 6,-14 -3,67 -10,95 -8,26 -22,20 -28,-13 z m 24,-30 c 0,-11 -4,-20 -10,-20 -5,0 -10,9 -10,20 0,11 5,20 10,20 6,0 10,-9 10,-20 z"
       id="path58" />
    <path
       d="m 2358,3123 c 25,-5 24,-20 -4,-75 -19,-37 -18,-38 19,-37 24,1 26,3 9,6 -25,5 -24,20 4,75 19,37 18,38 -18,37 -25,-1 -27,-3 -10,-6 z"
       id="path60" />
    <path
       d="m 2433,3070 c 0,-36 2,-50 4,-32 2,17 2,47 0,65 -2,17 -4,3 -4,-33 z"
       id="path62" />
    <path
       d="m 2482,3073 c -2,-60 -1,-63 21,-62 16,1 17,3 5,6 -13,3 -18,18 -21,61 l -3,57 z"
       id="path64" />
    <path
       d="m 2550,3070 c 0,-33 4,-60 10,-60 6,0 10,27 10,60 0,33 -4,60 -10,60 -6,0 -10,-27 -10,-60 z"
       id="path66" />
    <path
       d="m 2601,3068 c 2,-57 2,-59 9,-23 l 6,40 8,-37 c 9,-43 26,-51 26,-13 0,14 -4,25 -10,25 -5,0 -10,9 -10,19 0,26 -10,51 -21,51 -5,0 -8,-28 -8,-62 z"
       id="path68" />
    <path
       d="m 2656,3113 c -9,-21 4,-103 15,-103 5,0 9,27 9,60 0,58 -11,78 -24,43 z"
       id="path70" />
    <path
       d="m 2714,3117 c -3,-8 -4,-34 -2,-58 2,-37 7,-45 26,-47 18,-3 22,1 21,20 -1,18 -2,19 -6,5 -9,-34 -28,-11 -28,33 0,44 19,66 29,33 4,-15 5,-15 3,2 -3,24 -35,33 -43,12 z"
       id="path72" />
    <path
       d="m 2803,3070 c 0,-36 2,-50 4,-32 2,17 2,47 0,65 -2,17 -4,3 -4,-33 z"
       id="path74" />
    <path
       d="m 1380,3060 c 0,-20 7,-20 355,-20 348,0 355,0 355,20 0,20 -7,20 -355,20 -348,0 -355,0 -355,-20 z"
       id="path76" />
    <path
       d="m 2910,3060 c 0,-20 7,-20 355,-20 348,0 355,0 355,20 0,20 -7,20 -355,20 -348,0 -355,0 -355,-20 z"
       id="path78" />
    <path
       d="m 1775,2843 c -33,-8 -54,-34 -66,-76 -15,-58 9,-115 72,-168 52,-43 79,-84 79,-119 0,-23 -33,-60 -55,-60 -25,0 -55,38 -55,70 0,25 -4,30 -25,30 -20,0 -25,-5 -25,-25 0,-38 25,-92 48,-104 12,-6 40,-11 65,-11 54,0 86,30 94,89 8,57 -9,90 -81,159 -69,65 -84,98 -64,140 24,50 98,32 98,-25 0,-18 5,-23 26,-23 25,0 26,2 21,37 -11,63 -71,102 -132,86 z"
       id="path80" />
    <path
       d="m 2106,2823 c -2,-10 -21,-103 -41,-208 -19,-104 -38,-200 -40,-212 -5,-19 -1,-23 19,-23 22,0 26,6 32,45 l 6,46 61,-3 61,-3 9,-42 c 7,-37 12,-43 34,-43 22,0 25,3 20,28 -3,15 -23,118 -44,229 l -38,203 h -37 c -26,0 -38,-5 -42,-17 z m 84,-285 c 0,-15 -9,-18 -49,-18 h -48 l 14,73 c 8,39 19,97 25,127 l 11,55 23,-110 c 13,-60 23,-118 24,-127 z"
       id="path82" />
    <path
       d="m 2390,2610 v -230 h 25 25 v 101 102 l 41,-6 c 23,-3 47,-10 53,-17 6,-6 13,-49 15,-95 3,-84 3,-85 30,-85 h 26 l -5,90 c -5,74 -10,93 -28,113 l -22,23 23,22 c 19,19 22,33 22,93 0,65 -2,73 -28,95 -24,21 -38,24 -103,24 h -74 z m 145,169 c 13,-13 13,-125 -1,-139 -5,-5 -28,-11 -50,-13 l -39,-2 -3,74 c -4,98 -1,105 46,96 20,-3 42,-11 47,-16 z"
       id="path84" />
    <path
       d="m 2730,2611 v -231 h 25 25 l 1,163 1,162 23,-105 c 13,-58 28,-131 35,-162 10,-52 14,-58 36,-58 13,0 24,1 24,3 1,1 16,74 34,162 l 34,160 1,-162 1,-163 h 25 25 v 230 230 h -35 c -19,0 -35,-2 -35,-3 0,-7 -60,-302 -66,-327 -5,-18 -17,27 -43,150 l -37,175 -37,3 -37,3 z"
       id="path86" />
    <path
       d="m 3230,2837 c 0,-1 -20,-104 -43,-230 l -44,-227 h 23 c 18,0 25,7 30,28 14,64 12,62 74,62 h 58 l 6,-45 c 6,-39 10,-45 32,-45 13,0 24,6 24,13 0,7 -18,107 -40,221 -22,114 -40,212 -40,217 0,5 -18,9 -40,9 -22,0 -40,-1 -40,-3 z m 64,-196 23,-121 h -48 c -29,0 -49,5 -49,11 0,22 43,239 47,235 2,-2 14,-58 27,-125 z"
       id="path88" />
    <path
       d="m 2346,1935 c -8,-22 -8,-25 4,-25 6,0 10,7 10,15 0,8 5,15 10,15 17,0 11,-41 -10,-67 -28,-35 -25,-43 13,-42 23,1 26,3 10,6 -28,5 -29,13 -2,47 11,14 19,34 17,44 -4,23 -44,28 -52,7 z"
       id="path90" />
    <path
       d="m 2434,1937 c -3,-8 -4,-34 -2,-58 2,-36 7,-44 23,-44 18,0 20,7 20,55 0,44 -3,55 -18,58 -9,2 -20,-3 -23,-11 z m 34,-53 c -2,-22 -7,-39 -13,-39 -12,0 -19,60 -10,83 10,28 27,-3 23,-44 z"
       id="path92" />
    <path
       d="m 2524,1935 c -4,-9 -4,-19 0,-22 3,-4 6,1 6,10 0,19 15,23 26,6 3,-6 -3,-24 -15,-40 -30,-40 -27,-59 7,-58 23,2 24,2 5,6 -28,5 -28,7 -2,42 12,16 19,37 17,47 -4,24 -36,31 -44,9 z"
       id="path94" />
    <path
       d="m 2606,1935 c -3,-8 -1,-15 4,-15 6,0 10,5 10,10 0,6 5,10 10,10 6,0 10,-9 10,-20 0,-11 -5,-20 -12,-20 -9,0 -9,-3 0,-12 15,-15 16,-48 2,-48 -5,0 -10,5 -10,10 0,6 -4,10 -10,10 -5,0 -7,-7 -4,-15 8,-21 42,-19 47,3 4,14 3,55 -2,92 -2,16 -38,12 -45,-5 z"
       id="path96" />
    <path
       d="m 1380,1885 c 0,-13 46,-15 355,-15 309,0 355,2 355,15 0,13 -46,15 -355,15 -309,0 -355,-2 -355,-15 z"
       id="path98" />
    <path
       d="m 2910,1885 c 0,-13 46,-15 355,-15 309,0 355,2 355,15 0,13 -46,15 -355,15 -309,0 -355,-2 -355,-15 z"
       id="path100" />
  </g>
  <path
     style="fill:#2b0000;fill-opacity:0;stroke-width:0.75"
     d="M -18.363553,-10.393938 C -23.791773,156.67481 57.631632,158.48423 57.631632,158.48423 L 266.91993,156.07168 250.63525,-14.615888 Z"
     id="path268" />
  <path
     style="fill:#2b0000;fill-opacity:0;stroke-width:0.75"
     d="m 264.50738,-13.409618 c -17.49095,13.2690001 -1.20627,63.32931 1.80942,64.53558 3.01567,1.20627 -21.71292,-53.0759899 -21.71292,-53.0759899"
     id="path270" />
  <path
     style="fill:#2b0000;fill-opacity:0;stroke-width:0.75"
     d="M -6.9039529,-9.1876679 -5.6976829,141.59641 233.74743,140.99328 230.73175,-8.5845279 Z"
     id="path272" />
  <path
     style="fill:#2b0000;fill-opacity:0;stroke-width:0.75"
     d="m -1.5967829,6.5035718 2.34564999,-1.49268 -1.70593,9.3825902"
     id="path274" />
  <path
     style="fill:#2b0000;fill-opacity:0;stroke-width:0.75"
     d="m -1.3835429,-0.5333779 c -0.66968,10.0451994 0.44080999,-2.85114 -5.54426,20.2578899 -8.1559201,31.49091 5.23255,-9.41223 -7.0369501,29.214 -2.09608,6.59876 -4.92805,12.95905 -6.82371,19.61816 -0.88629,3.11339 -0.98258,6.3992 -1.49269,9.59584 -0.44651,2.79816 -3.38751,20.560333 -3.62509,22.603538 -0.76529,6.58153 -0.0848,5.47911 0.63973,11.72824 0.26741,2.30642 1.02866,11.89193 1.49268,15.14011 0.64122,4.48855 1.18641,8.99983 2.13241,13.43417 0.19897,0.93266 0.85296,1.70593 1.27944,2.55889 0.9324,1.8648 2.66661,5.28029 3.41185,7.03695 0.58737,1.38449 1.2038,4.27554 2.34566,5.54426 0.19605,0.21785 0.59083,0.0822 0.85296,0.21325 0.12716,0.0636 -0.12716,0.3629 0,0.42648 1.68169,0.84084 4.6210801,-3.86215 5.1177801,-4.47806 2.06026,-2.55472 6.38164,-7.6139 8.31639999,-9.59584 1.12569,-1.15315 2.37067001,-2.18699 3.62510001,-3.19862 1.8593,-1.49944 2.94605,-1.87985 4.47805,-3.41185 0.0503,-0.0503 0,-0.14216 0,-0.21324 0.0711,-0.0711 0.14216,-0.14216 0.21324,-0.21324"
     id="path339" />
  <path
     style="fill:#2b0000;fill-opacity:0;stroke-width:0.75"
     d="m -25.266513,42.541282 17.0592601,-8.95612"
     id="path341" />
  <path
     style="fill:#2b0000;fill-opacity:0;stroke-width:0.75"
     d="m -13.964753,46.592862 c -5.10311,4.43632 -10.67402,8.28212 -16.20631,12.15472 -1.34058,0.93842 -2.79446,1.72455 -4.05157,2.77214 -1.31281,1.094 -2.416735,2.41673 -3.625097,3.6251 -1.63485,1.63484 -3.269693,3.26969 -4.904543,4.90454 -1.208361,1.20836 -2.416731,2.41672 -3.625094,3.62509 -0.284317,0.28432 -0.629925,0.5184 -0.85296,0.85296 -0.11829,0.17743 0,0.42648 0,0.63972"
     id="path354" />
  <path
     style="fill:#2b0000;fill-opacity:0;stroke-width:0.75"
     d="m 28.256937,-0.1068979 c 2.62475,0.33375 4.98468,1.17177 7.67668,1.27944 22.596585,0.90387 -20.12423,-2.49162 25.802155,0.63973 19.109896,1.30295 17.867796,2.10847 36.464176,4.6912997 1.76574,0.24524 3.551822,0.31528 5.331032,0.42648 0.21405,0.0133 2.14449,0.2072 2.55889,0 0.78277,-0.39138 1.33789,-0.52775 2.34565,-0.63972 0.37113,-0.0412 1.89241,-0.18648 2.13241,-0.42648 0.80903,-0.80904 -4.96314,-1.46691 -5.11779,-1.49269"
     id="path440" />
  <path
     style="fill:#2b0000;fill-opacity:0;stroke-width:0.75"
     d="M 225.29153,10.341912 225.07829,128.05088 1.3885971,128.26412 V 10.555152 Z"
     id="path444" />
  <path
     style="fill:#2b0000;fill-opacity:0;stroke-width:0.75"
     d="M 225.29153,10.341912 225.07829,128.05088 1.3885971,128.26412 V 10.555152 Z"
     id="path446" />
  <path
     style="fill:#2b0000;fill-opacity:0;stroke-width:0.75"
     d="m -32.729953,53.629812 c 8.52963,6.39722 19.61816,-4.90454 21.53733,-3.83834"
     id="path448" />
  <path
     style="fill:#2b0000;fill-opacity:0;stroke-width:0.75"
     d="m -11.619103,79.858432 c -39.023079,92.546548 -35.824472,92.973038 -35.824472,92.973038 0,0 -19.618159,-5.54427 10.662044,3.62509 30.2802081,9.16936 32.4126181,5.7575 32.4126181,5.7575 0,0 -5.54426,-19.40492 -8.3163901,-19.61816 -2.77214,-0.21324 -37.103919,-10.23557 -37.103919,-10.23557 l -1.919167,28.78752"
     id="path450" />
  <path
     style="fill:#2b0000;fill-opacity:0;stroke-width:0.75"
     d="m 30.389357,173.25794 c 50.538091,13.0077 94.892193,0.42649 94.892193,0.42649 0,0 53.7367,0.42647 58.42801,0.85296 4.69129,0.42648 37.95687,-3.19861 40.08928,-3.19861 2.13241,0 24.09622,-13.00769 8.52964,-11.30177 -15.56659,1.70593 -54.16319,1.91917 -64.18551,1.49268 -10.02233,-0.42648 -40.30253,-2.77213 -50.11161,-2.34565 -9.80908,0.42648 -31.986142,-1.49268 -43.501138,-0.85295 -11.51501,0.63972 -40.729015,0.63972 -45.207075,1.49268 -4.47805,0.85296 -20.4711199,-2.13241 -13.22093,6.18399 7.25019,8.31639 21.96381,9.16935 21.96381,9.16935 z"
     id="path452" />
  <path
     style="fill:#2b0000;fill-opacity:0;stroke-width:0.75"
     d="M 266.72234,137.59083 H -54.065412 Z"
     id="path503" />
  <path
     style="fill:#2b0000;fill-opacity:0;stroke-width:0.75"
     d="m -54.065412,134.98582 c 2.599942,0.43332 1.478308,0.37215 3.349293,0.37215"
     id="path505" />
  <path
     style="fill:#2b0000;fill-opacity:0;stroke-width:0.75"
     d="m -56.670416,133.49724 c 0.620239,0 1.256966,0.14207 1.860717,0 1.527384,-0.35938 2.930781,-1.16297 4.465723,-1.48856 4.623844,-0.98082 21.216807,-2.52767 23.072901,-2.60501 5.204678,-0.21686 36.7970921,0.1051 41.680079,0.37214 8.825603,0.48265 17.604938,1.61628 26.422193,2.23287 13.138035,0.91874 26.343925,0.9078 39.447211,2.23286 12.92473,1.30699 25.784922,3.45379 38.702942,4.83787 4.20991,0.45105 8.46035,0.52517 12.65288,1.11642 5.49323,0.77469 10.89213,2.1278 16.37431,2.97715 3.33017,0.51594 6.71273,0.63371 10.04788,1.11644 42.59701,6.95461 3.2403,0.91673 25.6779,3.72143 1.49746,0.18718 2.9585,0.66892 4.46572,0.74428 2.62215,0.13111 8.99506,-1.53975 11.53646,-2.23286 0.64447,-0.17576 1.2098,-0.59408 1.86071,-0.74429 0.9745,-0.22487 1.99471,-0.18501 2.97715,-0.37214 1.62578,-0.30967 3.215,-0.79186 4.83787,-1.11643 14.07139,-2.81428 2.2681,-0.53826 16.37431,-1.86072 1.25953,-0.11808 2.46702,-0.58066 3.72144,-0.74428 5.50334,-0.71783 11.19832,-1.27519 16.74646,-1.48858 1.36352,-0.0524 2.74492,0.20749 4.09358,0 1.90335,-0.29282 3.71982,-0.99849 5.58216,-1.48858 0.61169,-0.16097 1.29497,-0.65501 1.86072,-0.37214 1.99713,0.99857 0.19343,4.47412 0,6.69859 -0.31331,3.60298 -1.06822,7.17589 -1.11644,10.79216 -0.19955,14.96603 0.25015,21.38771 7.07073,35.35364 2.43082,4.9774 6.19117,9.18714 9.30359,13.76931 2.58359,3.80361 5.23752,8.58682 8.5593,11.90859 0.31626,0.31626 0.80017,0.42803 1.11643,0.74429 0.0877,0.0877 -0.0877,0.28443 0,0.37215 0.52335,0.52335 2.45275,-0.49687 2.605,-0.74429 0.78556,-1.27653 1.37347,-2.67611 1.86073,-4.09358 0.88071,-2.5621 1.82527,-5.13661 2.23286,-7.81501 1.90837,-3.99822 -0.10638,-8.21334 0.37214,-12.28074 0.1037,-0.88141 0.93882,-4.48265 1.48857,-5.58216 0.15692,-0.31382 0.58738,-0.43047 0.74429,-0.74428 0.4624,-0.9248 0.37215,-1.65001 0.37215,-2.60501"
     id="path511" />
  <path
     style="fill:#2b0000;fill-opacity:0;stroke-width:0.1875"
     d="m -33.597515,151.68576 -9.675733,-7.72197"
     id="path513" />
  <path
     style="fill:#2b0000;fill-opacity:0;stroke-width:0.75"
     d="m -57.786847,135.35796 c 5.954297,-0.99238 11.869152,-2.2605 17.862891,-2.97714 5.432087,-0.64949 10.904097,-1.03829 16.374317,-1.11643 29.2725691,-0.41819 58.550809,-0.54088 87.825881,-0.37215 29.463096,0.16982 44.886758,0.61526 72.940138,4.46572 2.17771,0.29891 4.21762,1.24048 6.32644,1.86072 2.8531,0.62024 5.66634,1.46622 8.5593,1.86073 2.58404,0.35236 5.21174,0.21594 7.81501,0.37214 3.59946,0.21596 7.19912,0.43979 10.79216,0.74428 3.72665,0.31582 7.43117,0.89018 11.16432,1.11643 19.38964,1.17513 6.97909,-0.0356 20.84004,0.37215 4.79016,0.14089 4.1217,0.28614 7.44287,1.11643 0.32414,0.081 1.16443,0.66325 1.48857,0.74428 0.84241,0.21061 1.74024,-0.0786 2.605,0 4.13576,0.37599 8.11317,0.7443 12.28074,0.7443 8.65432,0 21.03231,0.0899 28.65506,-3.72144 1.03584,-0.51792 2.9513,0.22845 4.09357,0 0.272,-0.0544 0.4962,-0.2481 0.7443,-0.37215 0.62023,-0.12405 1.23132,-0.3092 1.86071,-0.37214 0.39035,-0.0391 5.9095,-0.43935 5.9543,-0.37214 1.18404,1.77606 0.80305,4.99445 0.74429,6.69858 -0.0139,0.4037 -0.64454,11.09059 -0.74429,11.9086 -0.39502,3.23918 -1.16388,6.42873 -1.48857,9.67572 -0.2965,2.96495 -0.19717,5.95686 -0.37215,8.93145 -0.22521,3.82859 -0.60321,3.37365 -0.37214,7.07073 0.10045,1.60737 1.11643,3.83918 1.11643,4.83786"
     id="path515" />
  <path
     style="fill:#2b0000;fill-opacity:0;stroke-width:0.75"
     d="m -76.766169,145.0337 26.05005,-8.93145"
     id="path517" />
  <path
     style="fill:#2b0000;fill-opacity:0;stroke-width:0.75"
     d="m -53.693268,138.33511 c 1.984766,0 3.969655,-0.0222 5.954297,0 206.577921,2.30814 -18.550228,-1.03607 86.709448,2.23286 11.283605,0.35043 22.583015,-0.0247 33.865065,0.37215 13.409526,0.4717 26.784116,1.70362 40.191508,2.23286 11.48225,0.45325 22.79317,-0.51541 34.23721,-0.74429 16.8584,-0.33716 33.76321,0.34786 50.61152,0.74429 28.04639,0.65992 -0.79283,-0.2284 23.81719,1.48858 6.48771,0.45262 13.21657,0 19.7236,0 3.68325,0 7.49513,0.28224 11.16431,0 2.06372,-0.15876 4.34071,-0.92123 6.32644,-1.48858 0.67356,0.2243 0.69212,-0.60285 1.11644,-0.74429 0.35304,-0.11768 0.78357,0.16643 1.11643,0 1.54877,-0.77439 -0.39784,0.0257 0.37214,-0.74428 0.0877,-0.0877 0.26119,0.0555 0.37214,0 0.31382,-0.15691 0.41144,-0.63334 0.74429,-0.74429 0.69788,-0.23263 1.90286,0.11702 2.60501,0 0.99771,-0.16629 1.60317,-0.74429 2.605,-0.74429"
     id="path519" />
  <path
     style="fill:#2b0000;fill-opacity:0;stroke-width:0.75"
     d="M 44.92478,141.68441 -125.88912,38.600642"
     id="path521" />
  <path
     style="fill:#2b0000;fill-opacity:0;stroke-width:0.75"
     d="M 1.2909431,10.038623 V 128.1942 l 0.186072,5.21001"
     id="path523" />
  <path
     style="fill:#2b0000;fill-opacity:0;stroke-width:0.75"
     d="m 1.2909431,10.410767 v 117.690403 4.00054 3.16322 H 108.46829 l 116.76004,-1.48857 1.76768,0.093 -0.93036,3e-5 h -1.02339"
     id="path525" />
  <path
     style="fill:#2b0000;fill-opacity:0;stroke-width:0.75"
     d="m 226.99602,133.77636 c -0.40316,0 -0.80632,0 -1.20947,0 -0.22932,0 -1.78387,0.0162 -1.58161,-0.18608 0.0356,-0.0356 0.55299,-0.001 0.55821,0 0.15596,0.039 0.21914,0.27912 0.65125,0.27912"
     id="path574" />
  <path
     style="fill:#2b0000;fill-opacity:0;stroke-width:0.75"
     d="m -2.6430919,-6.7215312 c -0.52629,1.5788716 -1.388106,3.0833083 -1.578872,4.7366143 -0.341845,2.96265603 0.06625,5.965362 0,8.9469387 -0.109198,4.9139632 0.0165,9.8510192 -0.52629,14.7361332 -0.863133,7.768194 -3.363099,15.347373 -3.684033,23.15678 -0.482682,11.745245 5.6843,25.932922 8.94693799,36.314047 1.64743701,5.24184 2.96589301,10.58722 4.73661401,15.788713 1.973451,5.797005 5.3413709,12.362395 7.8943569,17.893875 0.724043,1.56876 1.292086,3.21209 2.105162,4.73661 2.202474,4.12963 2.105162,1.77816 2.105162,3.68404"
     id="path576" />
  <path
     style="fill:#2b0000;fill-opacity:0;stroke-width:0.75"
     d="M -1.5905109,110.64124 -0.01163891,2.2254071"
     id="path578" />
  <path
     style="fill:#2b0000;fill-opacity:0;stroke-width:0.75"
     d="M -51.061816,70.643167 -5.2745449,-0.4060449"
     id="path580" />
  <path
     style="fill:#2b0000;fill-opacity:0;stroke-width:0.75"
     d="M -1.5905109,-6.7215312 V 140.6398"
     id="path582" />
  <path
     style="fill:#2b0000;fill-opacity:0;stroke-width:0.75"
     d="M 230.50359,142.21867 231.02987,-4.6163689"
     id="path584" />
  <path
     style="fill:#2b0000;fill-opacity:0;stroke-width:0.75"
     d="m -3.1693819,-1.4586259 c 27.0212609,-6.4258394 55.3689839,-4.7623335 82.6275999,-1.052581 17.975,2.446302 35.676322,6.7346817 53.681632,8.9469377 33.42121,4.1063612 66.96149,7.2487002 100.52148,9.9995192 9.26837,0.759702 18.59481,0.398913 27.89339,0.52629 3.50828,0.04806 7.01961,0.12986 10.52581,0 1.23963,-0.04592 2.4806,-0.22543 3.68404,-0.52629 1.20481,-0.301203 4.58518,-4.28604 2.63145,-5.262905 -0.49619,-0.248095 -1.05258,-0.35086 -1.57887,-0.526291 -1.57887,-0.7017205 -3.23647,-1.2479392 -4.73662,-2.1051612 -5.20945,-2.976834 -6.8685,-4.8270687 -9.47323,-6.3154857 -1.36235,-0.778489 -2.89043,-1.25666197 -4.21031,-2.105162 -1.15255,-0.740921 -1.98286,-1.926514 -3.15775,-2.631452 -1.09515,-0.657089 -2.54172,-0.481422 -3.68403,-1.052581 -0.56575,-0.282873 -0.97069,-0.878814 -1.57888,-1.052581 -0.67472,-0.1927778 -1.41049,0.099238 -2.10516,0 -2.66972,-0.3813893 -5.08735,-1.453581 -7.89436,-1.0525808 -3.90476,0.557823 -7.61278,3.1577428 -11.57838,3.1577428 l 2.63145,152.0979469"
     id="path586" />
  <path
     style="fill:#2b0000;fill-opacity:0;stroke-width:0.75"
     d="m -13.695192,137.36181 c 37.062643,2.24003 74.01094,0.90039 111.04729,0.52629 8.190192,-0.0827 39.098652,0.12166 44.208402,0 5.97324,-0.14222 11.92215,-0.85679 17.89388,-1.05258 22.41823,-0.73502 12.42517,1.67038 43.15582,-1.05258 4.28394,-0.37959 8.35158,-2.20352 12.63096,-2.63145 4.53855,-0.45386 9.12345,0.0991 13.68356,0 3.51215,-0.0763 7.01395,-0.43739 10.52581,-0.52629 56.3344,-1.42619 11.6054,-1.73406 44.73469,1.57887 3.14207,0.3142 6.31548,0 9.47323,0 0.64309,0 2.77948,0.37825 3.15774,0 0.32801,-0.32802 3.90616,-6.09336 5.26291,-4.73662 0.27159,0.2716 0.52629,6.62232 0.52629,7.36807"
     id="path588" />
  <path
     style="fill:#2b0000;fill-opacity:0;stroke-width:0.75"
     d="m 240.50311,153.67681 c 2.78188,1.66913 1.60853,1.57887 3.15775,1.57887"
     id="path590" />
  <path
     style="fill:#2b0000;fill-opacity:0;stroke-width:0.75"
     d="m 233.13504,132.6252 c -5.03635,-5.11128 -8.76275,-11.19122 -13.15726,-16.8413 -0.68964,-0.88668 -1.21848,-1.94182 -2.10516,-2.63146 -3.87981,-3.01762 -8.06346,-5.62287 -12.10468,-8.42064 C 179.54638,86.57842 153.22505,68.884269 125.77178,52.629047 82.402878,26.95009 132.38391,57.686751 98.930968,36.314043 c -2.58604,-1.652195 -5.41252,-2.931648 -7.89436,-4.736614 -1.4045,-1.021461 -2.35827,-2.562246 -3.68403,-3.684034 -2.96056,-2.505092 -7.46173,-3.881031 -9.99951,-6.841776 -0.51058,-0.595673 -0.58186,-1.477524 -1.05258,-2.105162 C 75.70505,18.152551 74.804585,17.624635 74.195316,16.841295 71.518171,13.39925 69.410425,9.4249498 66.30096,6.3154858"
     id="path592" />
  <path
     style="fill:#2b0000;fill-opacity:0;stroke-width:0.75"
     d="M 236.81908,138.41439 1.5672321,0"
     id="path594" />
  <path
     style="fill:#2b0000;fill-opacity:0;stroke-width:0.75"
     d="M 227.87213,-0.52629047 C 211.1069,17.809414 191.93777,32.526989 170.50647,44.73469 c -6.13538,3.494835 -12.63097,6.315486 -18.94646,9.473229 -7.0172,3.508603 -13.82788,7.464905 -21.05162,10.525809 -3.17351,1.34471 -6.67431,1.724577 -9.99951,2.631453 -4.39395,1.19835 -8.7862,2.404699 -13.15726,3.684033 -7.32262,2.143204 -14.827282,4.051556 -22.104202,6.315484 -36.851238,11.464829 3.68557,0.0153 -38.945496,12.104684 -23.127468,6.558533 -6.720773,0.93747 -37.3666229,11.578388 -10.90479,3.78639 -23.1752521,7.9763 -32.1037201,15.78871 -3.841441,3.36126 6.380219,6.75654 7.368067,7.36807 1.820756,1.12714 3.576543,2.36427 5.262905,3.68403 13.5251161,10.58488 0.7755241,1.62997 12.1046811,9.47324 0.0066,0.005 3.684033,1.7463 3.684033,1.57887 0,-0.17544 -0.380323,0.0973 -0.52629,0 -0.412856,-0.27525 -0.754866,-0.65563 -1.052581,-1.05258 -1.245895,-1.6612 0.395514,-0.65707 -1.578871,-2.63146 -0.27738,-0.27738 -0.775202,-0.24891 -1.052581,-0.52629 -0.39227401,-0.39227 1.826967,0.0301 1.578871,0.52629 -1.095147,2.1903 0.03633,-0.56262 -1.052581,0.52629 -0.458334,0.45834 -0.0019,1.57888 0.526291,1.57888"
     id="path596" />
  <path
     style="fill:#2b0000;fill-opacity:0;stroke-width:0.75"
     d="m 1.2339701,0 c 2.910823,27.167678 1.438156,4.3284773 -1.05258001,43.68211 -1.009506,15.950188 2.17717701,31.818808 9.99951891,45.787272 1.117597,1.995705 2.102979,4.136273 3.684033,5.789198 11.394798,11.91274 36.550644,20.75929 49.997598,25.78823 28.451548,10.64042 57.77966,19.2222 87.89051,23.68307 7.1351,1.05705 14.66593,-0.89556 21.57791,-2.10516 16.28229,-2.8494 8.95975,-0.74932 22.63048,-4.73661 5.18241,-1.51154 5.7892,-1.61466 5.7892,-6.31549 0,-0.52629 0.20732,-1.09514 0,-1.57887 -1.99404,-4.65276 -0.71391,-0.71392 -2.63145,-2.63146 -0.65393,-0.65392 3.12512,-1.85017 6.31549,-1.05258 2.05644,0.51411 3.77824,1.96114 5.78919,2.63146 1.21161,0.40387 2.42749,0.82411 3.68404,1.05258 2.37766,0.4323 3.2116,-0.58846 5.2629,1.05258 1.69658,1.35726 0.25974,1.31231 1.05258,2.10516 0.097,0.097 1.4819,0.42931 1.57888,0.52629 0.17542,0.17543 -0.41535,0.74819 -0.5263,0.52629 -0.38651,-0.77301 -1.24086,-4.64248 0,-5.2629 0.31382,-0.15692 0.73876,0.15691 1.05258,0 1.80469,-0.90235 0.42745,-1.48002 1.05258,-2.10517 0.92309,-0.92308 1.05258,1.47272 1.05258,-1.05258"
     id="path598" />
  <path
     style="fill:#2b0000;fill-opacity:0;stroke-width:0.75"
     d="M 0.52629047,134.20407 C 16.183407,118.43801 9.2558085,106.49889 32.630009,94.732282 51.373334,85.29687 71.674971,79.28739 91.574543,72.628085 126.04201,61.093696 161.53641,52.707202 195.78006,40.524367 c 3.0413,-1.082003 24.22058,-6.759349 30.52484,-14.209843 0.93883,-1.109521 0.9621,-6.693682 1.57887,-8.420648 2.7195,-7.614597 1.24483,-1.963359 4.73662,-8.9469377 0.32348,-0.6469545 0.16742,-1.477147 0.52629,-2.1051622 0.94978,-1.6621058 2.94055,-2.4142591 4.21033,-3.6840332 0.62023,-0.6202393 -1.75866,-0.08728 -2.63146,0 -2.8786,0.2878602 -6.15684,0.355056 -8.94694,1.0525809 -0.53819,0.1345487 -1.1866,0.9185643 -1.57887,0.5262905 -0.0445,-0.044493 -0.45072,-4.21032383 0.52629,-4.21032383"
     id="path600" />
  <path
     style="fill:#2b0000;fill-opacity:0;stroke-width:0.75"
     d="m 236.83071,163.67634 -1.05258,36.84033"
     id="path602" />
</svg>
